<svg xmlns="http://www.w3.org/2000/svg" viewBox="0 0 256 50"><defs><style>      .cls-1, .cls-2 {        fill: #e7e3dc;      }      .cls-2 {        fill-rule: evenodd;      }    </style></defs><g><g id="Layer_1"><g><g><path class="cls-1" d="M187.52,4.96c.29-.06.75-.11,1.21-.11.66,0,1.09.11,1.41.37.27.2.43.5.43.91,0,.49-.33.93-.87,1.13v.02c.49.12,1.06.53,1.06,1.29,0,.44-.17.78-.43,1.03-.36.33-.94.48-1.77.48-.46,0-.81-.03-1.03-.06v-5.05ZM188.18,7.07h.6c.7,0,1.11-.37,1.11-.86,0-.6-.46-.84-1.13-.84-.3,0-.48.02-.59.05v1.65ZM188.18,9.52c.13.02.32.03.56.03.69,0,1.32-.25,1.32-1,0-.7-.6-.99-1.33-.99h-.55v1.96Z"></path><path class="cls-1" d="M192.98,10.03v-2.18l-1.62-2.95h.75l.72,1.42c.2.39.35.7.51,1.06h.02c.14-.33.32-.67.52-1.06l.74-1.42h.75l-1.72,2.95v2.19h-.67Z"></path></g><g id="Page-1"><g id="D_x5F_001_x5F_1_x5F_B_x26_B_x5F_homepage"><g id="hero"><g id="B_x26_B-Italia-logo"><path id="Fill-7" class="cls-2" d="M202.72,43.99h2.91v-17.58h-2.91v17.58ZM202.14,44.57h4.07v-18.74h-4.07v18.74Z"></path><path id="Fill-9" class="cls-2" d="M207.99,22.46l-.05-.07.03-8.88c1.33-.07,2.82-.16,3.64,1.05.88,1.54.86,3.77.49,5.54-.14.56-.3,1.09-.63,1.56-.77,1.14-2.26.7-3.49.81h0ZM211.07,5.97c.67,1.37.54,3.26.28,4.75-.16.7-.7,1.37-1.4,1.65-.6.25-1.3.33-1.98.3l-.03-7.67c1.16.02,2.59-.26,3.14.98h0ZM241.99,13.51c1.33-.07,2.82-.16,3.64,1.05.88,1.54.86,3.77.49,5.54-.14.56-.3,1.09-.63,1.56-.77,1.14-2.26.7-3.49.81l-.05-.07.04-8.88ZM245.09,5.97c.67,1.37.54,3.26.28,4.75-.16.7-.7,1.37-1.4,1.65-.59.25-1.3.33-1.98.3l-.04-7.67c1.16.02,2.59-.26,3.14.98h0ZM215.35,22.2c1.31-.78,2.02-2.09,2.15-3.49.1.46.24.91.44,1.3,1.1,2.45,3.7,3.29,6.13,3.56,2.93.14,5.92-.3,7.59-2.87.98-1.38,1.02-3.66.26-5.17.72-.16,1.4-.39,2.03-.75,1.03-.59,1.75-1.68,2.09-2.72.05-.16.08-.32.11-.48v10.85h-1.16v.87h7.87c2.26-.02,4.68.11,6.5-1.1,1.98-1.17,2.63-3.58,1.88-5.66-.63-2.17-2.98-3.33-5.08-3.56,1.66-.32,3.35-1.16,4.19-2.77.53-1,.53-2.47-.07-3.45-1.1-1.96-3.22-2.56-5.34-2.64h-9.94v.87h1.16v4.75c-.14-.69-.43-1.34-.9-1.86-.58-.61-1.38-.93-2.22-.74-.56.14-1.09.63-1.21,1.21-.16.63.02,1.26.53,1.66.4.35,1.03.42,1.52.25.56-.19.91-.77,1.03-1.3.3.39.35,1.03.14,1.49-.23.6-.86.98-1.44,1.16-1.33.33-2.86.26-4.24.37-1.73.25-3.43.93-4.47,2.52-.77,1.17-1.09,3-.33,4.29.33.53.88.89,1.45.98.65.14,1.14-.19,1.56-.61.42-.47.54-1.26.26-1.84-.25-.53-.79-.86-1.35-.89-.6-.04-1.12.26-1.44.79,0-.23.11-.46.21-.65.88-1.3,2.54-1.54,4-1.23.95.21,1.94,1.09,2.21,2.07.25,1.21-.16,2.35-.93,3.22-1.51,1.67-3.94,2.12-5.98,1.37-1.12-.42-2.05-1.58-2.28-2.72-.31-1.63-.35-3.66.39-5.12.75-1.31,2.21-1.45,3.54-1.54.12-.16.03-.44.07-.65-.61-.03-1.28-.07-1.79-.4-.72-.46-.96-1.24-1.05-2.03-.09-1.56-.33-3.49,1.23-4.33.88-.54,2.12-.3,2.96.16.63.46,1.14,1.12,1.03,1.88-.3-.37-.67-.58-1.07-.72-.42-.11-.91-.05-1.28.14-.49.26-.88.77-.91,1.33-.09.58.17,1.05.53,1.44.53.54,1.33.74,2.08.51.68-.21,1.24-.86,1.44-1.53.35-1.44-.21-2.8-1.4-3.68-1.91-1.26-4.89-1.12-6.8.05-1.37.72-2.16,2.17-2.14,3.72.02,1.68,1.56,3.07,2.98,3.66-1.54.23-3,.98-3.91,2.33-.5.71-.76,1.64-.81,2.59-.04-.19-.09-.37-.15-.55-.63-2.17-2.98-3.33-5.08-3.56,1.67-.32,3.35-1.16,4.19-2.77.53-1,.53-2.47-.07-3.45-1.1-1.96-3.22-2.56-5.34-2.64h-9.94v.87h1.16v17.44h-1.16v.87h7.87c2.26-.02,4.68.11,6.5-1.1h0Z"></path><path id="Fill-10" class="cls-2" d="M213.24,43.99h-3.2v-15.55h-2.67v-2.03h8.54v2.03h-2.67v15.55ZM216.5,29.02v-3.2h-9.71v3.2h2.66v15.55h4.37v-15.55s2.67,0,2.67,0Z"></path><path id="Fill-11" class="cls-2" d="M243.8,36.46l.94-5.88,1.02,5.88h-1.96ZM244.65,28.38l-1.51,8.67h3.28l-1.53-8.67h-.24Z"></path><path id="Fill-12" class="cls-2" d="M235.32,43.99h2.91v-17.58h-2.91v17.58ZM234.74,44.57h4.07v-18.74h-4.07v18.74Z"></path><path id="Fill-13" class="cls-2" d="M247.61,43.99l-.9-4.91h-3.92l-.87,4.91h-1.96l2.85-17.58h4.94l2.9,17.58h-3.04ZM242.34,25.82l-3,18.74h3.11l.82-4.91h3.04l.82,4.91h4.21l-3.07-18.74h-5.91Z"></path><path id="Fill-14" class="cls-2" d="M233.64,41.95v2.03h-6.01v-17.58h2.91v15.55h3.1ZM231.12,25.82h-4.07v18.74h7.17v-3.2h-3.1v-15.55Z"></path><path id="Fill-15" class="cls-2" d="M222.73,43.99l-.9-4.91h-3.92l-.87,4.91h-1.96l2.85-17.58h4.94l2.9,17.58h-3.04ZM217.46,25.82l-3,18.74h3.11l.82-4.91h3.04l.82,4.91h4.22l-3.07-18.74h-5.92Z"></path><path id="Fill-16" class="cls-2" d="M218.92,36.46l.94-5.88,1.02,5.88h-1.96ZM219.77,28.38l-1.51,8.67h3.28l-1.53-8.67h-.24Z"></path></g></g></g></g><g><g><polygon class="cls-1" points="124.14 37.6 109.96 4.65 102.62 4.65 120.47 46.13 120.47 46.14 120.48 46.14 127.81 46.14 127.82 46.14 127.81 46.13 145.66 4.65 138.32 4.65 124.14 37.6"></polygon><polygon class="cls-1" points="137.89 46.14 145.23 46.14 153.83 26.16 146.49 26.16 137.89 46.14"></polygon><polygon class="cls-1" points="165.25 4.66 165.26 4.65 165.25 4.65 157.92 4.65 157.91 4.65 157.91 4.66 157.91 4.67 161.58 13.19 161.58 13.19 175.76 46.14 183.1 46.14 165.25 4.66"></polygon></g><polyline class="cls-1" points="4.46 45.78 4.46 5.01 27.74 5.01 27.74 30.53 38.72 5.01 55.65 5.01 55.65 11.37 55.65 45.78 49.09 45.78 49.09 11.37 43.26 11.37 28.45 45.78 21.18 45.78 21.18 11.37 11.02 11.37 11.02 45.78 4.46 45.78"></polyline><path class="cls-1" d="M81.83,5.1c-11.59,0-20.99,9.11-20.99,20.34s9.4,20.34,20.99,20.34,20.99-9.11,20.99-20.34-9.4-20.34-20.99-20.34ZM81.83,39.38c-7.94,0-14.38-6.24-14.38-13.94s6.44-13.94,14.38-13.94,14.38,6.24,14.38,13.94-6.44,13.94-14.38,13.94Z"></path></g></g></g></g></svg>